Hanif_Deep_5_0_grf.mot
version=1
nRows=64
nColumns=19
inDegrees=yes
endheader
time	right_ground_force_vx	right_ground_force_vy	right_ground_force_vz	right_ground_force_px	right_ground_force_py	right_ground_force_pz	right_ground_torque_x	right_ground_torque_y	right_ground_torque_z	left_ground_force_vx	left_ground_force_vy	left_ground_force_vz	left_ground_force_px	left_ground_force_py	left_ground_force_pz	left_ground_torque_x	left_ground_torque_y	left_ground_torque_z
7.100000	0.359682	351.706000	43.101900	0.203082	0.000000	-1.430440	-26.569800	5.191710	1.733320	4.534490	363.895000	-47.973700	0.207233	0.000000	-0.978086	27.212300	-8.916030	3.808310
7.105000	0.131198	347.642000	44.711700	0.202916	0.000000	-1.430610	-26.205400	5.222070	1.700990	4.464750	362.998000	-49.000800	0.207095	0.000000	-0.977837	27.056700	-8.839430	3.770420
7.110000	0.211101	346.826000	45.787900	0.202909	0.000000	-1.431210	-25.936300	5.178940	1.708300	4.962690	360.308000	-49.618500	0.206723	0.000000	-0.978382	27.040900	-8.737460	3.620030
7.115000	0.277842	344.166000	47.366500	0.202885	0.000000	-1.431120	-25.765700	5.134100	1.715590	4.455120	357.792000	-50.090000	0.206514	0.000000	-0.978954	27.068300	-8.651440	3.540180
7.120000	-0.369505	343.326000	48.582200	0.203083	0.000000	-1.431660	-25.528200	5.129260	1.809400	4.293900	356.820000	-50.786700	0.206067	0.000000	-0.978504	26.839200	-8.506730	3.373440
7.125000	-1.300740	339.789000	49.279400	0.203194	0.000000	-1.430880	-25.546800	5.075130	1.858350	3.720640	354.009000	-51.109700	0.205659	0.000000	-0.978918	26.787200	-8.414280	3.219060
7.130000	-1.296030	337.849000	50.380600	0.203385	0.000000	-1.431100	-25.324600	5.058010	1.937890	3.383200	352.150000	-51.547800	0.205896	0.000000	-0.978060	26.352100	-8.318030	3.301350
7.135000	-2.259850	336.848000	51.235100	0.203037	0.000000	-1.431630	-25.087400	5.019680	1.835750	2.640670	348.808000	-52.320500	0.206297	0.000000	-0.978990	26.442700	-8.216900	3.448330
7.140000	-2.225170	335.651000	52.393400	0.203409	0.000000	-1.432100	-24.841300	4.967500	1.973350	2.035030	349.557000	-52.658200	0.206435	0.000000	-0.978964	26.505800	-8.047490	3.489310
7.145000	-1.835060	334.882000	53.200700	0.202617	0.000000	-1.431720	-24.903700	5.144840	1.737350	1.196910	348.685000	-53.240100	0.206359	0.000000	-0.978892	26.434500	-7.935680	3.466790
7.150000	-1.751770	332.287000	53.415000	0.202670	0.000000	-1.431590	-24.753100	5.196460	1.766430	0.384246	345.882000	-53.742700	0.207019	0.000000	-0.979623	26.493500	-7.760900	3.687590
7.155000	-2.153970	332.326000	54.176000	0.203355	0.000000	-1.431350	-24.844300	5.130590	2.007100	-0.569561	344.119000	-53.671000	0.207089	0.000000	-0.979671	26.397200	-7.593580	3.690000
7.160000	-1.973840	328.454000	54.096200	0.203049	0.000000	-1.432030	-24.327300	5.191620	1.907750	-0.903089	342.478000	-54.081900	0.207198	0.000000	-0.979884	26.352000	-7.493790	3.720860
7.165000	-2.219390	325.775000	54.799200	0.203197	0.000000	-1.431580	-24.280800	5.144390	1.964090	-1.622400	341.689000	-54.116800	0.207655	0.000000	-0.979448	26.159100	-7.436240	3.878650
7.170000	-2.570270	323.369000	54.937800	0.203611	0.000000	-1.432160	-23.922300	5.114190	2.102460	-2.005390	339.498000	-54.191000	0.208201	0.000000	-0.979465	26.005900	-7.225420	4.032970
7.175000	-3.225360	320.847000	55.495000	0.203958	0.000000	-1.431220	-24.049500	5.046400	2.222460	-2.231350	337.699000	-54.399200	0.208119	0.000000	-0.979734	25.964500	-7.168750	3.995250
7.180000	-3.273630	320.611000	54.690700	0.204567	0.000000	-1.431360	-23.986700	5.113640	2.420880	-3.273820	332.892000	-54.319600	0.208997	0.000000	-0.980633	25.919800	-7.020980	4.262060
7.185000	-3.897190	321.277000	54.692300	0.205046	0.000000	-1.431360	-24.050200	5.132120	2.591410	-3.623360	332.086000	-54.761000	0.209091	0.000000	-0.980077	25.679400	-6.849220	4.276460
7.190000	-4.328940	318.318000	54.877000	0.205853	0.000000	-1.430450	-24.126600	5.056480	2.846430	-3.891790	329.882000	-55.027800	0.209408	0.000000	-0.980873	25.778700	-6.785700	4.372470
7.195000	-3.888750	316.416000	55.279800	0.206052	0.000000	-1.430370	-23.999500	5.023940	2.902530	-3.613490	329.106000	-54.827500	0.209686	0.000000	-0.980643	25.634600	-6.638690	4.428960
7.200000	-3.841510	316.310000	55.113000	0.205967	0.000000	-1.430740	-23.875400	5.052310	2.875540	-3.496790	326.672000	-55.562800	0.210066	0.000000	-0.981038	25.572500	-6.631070	4.557580
7.205000	-3.938890	312.323000	54.987700	0.206539	0.000000	-1.429690	-23.903300	4.938030	3.027890	-3.286170	324.350000	-55.425100	0.210172	0.000000	-0.980804	25.309800	-6.493620	4.549080
7.210000	-4.447470	309.964000	55.057400	0.206767	0.000000	-1.430550	-23.469200	4.956340	3.103670	-3.654190	323.615000	-55.934300	0.210917	0.000000	-0.981046	25.338500	-6.332560	4.782420
7.215000	-5.057600	305.800000	55.508200	0.206830	0.000000	-1.429840	-23.382900	4.789270	3.096550	-3.518150	323.085000	-56.034200	0.210508	0.000000	-0.980913	25.249600	-6.224060	4.624080
7.220000	-5.359530	301.821000	55.766400	0.207117	0.000000	-1.429410	-23.213500	4.739580	3.172890	-3.809970	319.480000	-55.627300	0.211211	0.000000	-0.980716	24.912900	-6.132610	4.809720
7.225000	-5.556930	298.527000	56.187100	0.207259	0.000000	-1.430190	-22.731900	4.645610	3.197340	-3.933360	316.741000	-56.199600	0.211701	0.000000	-0.981305	24.888400	-5.951900	4.933690
7.230000	-4.870580	293.812000	56.008400	0.207332	0.000000	-1.429590	-22.539200	4.590620	3.178640	-3.012520	312.846000	-56.793000	0.212129	0.000000	-0.981378	24.585000	-5.798590	5.015190
7.235000	-4.200500	291.462000	56.249500	0.206966	0.000000	-1.429410	-22.397800	4.530650	3.042450	-3.601990	310.117000	-56.759300	0.212004	0.000000	-0.981680	24.477300	-5.691710	4.940810
7.240000	-4.802260	287.623000	56.167800	0.207089	0.000000	-1.428950	-22.251900	4.612520	3.089730	-3.184930	306.121000	-56.545500	0.212404	0.000000	-0.981242	24.018900	-5.537720	4.995710
7.245000	-3.712410	284.914000	55.965800	0.207324	0.000000	-1.428770	-22.074200	4.611280	3.129470	-3.106940	302.444000	-56.726000	0.212269	0.000000	-0.981757	23.884100	-5.349530	4.890570
7.250000	-3.787910	280.845000	55.413200	0.206842	0.000000	-1.427970	-21.985700	4.524770	2.947560	-2.605650	298.466000	-56.762800	0.211663	0.000000	-0.981550	23.498200	-5.284240	4.650960
7.255000	-3.580330	277.197000	54.867400	0.207342	0.000000	-1.427030	-21.958800	4.599390	3.081270	-2.218410	295.351000	-57.393700	0.212265	0.000000	-0.981304	23.172600	-5.163010	4.796270
7.260000	-3.051180	270.544000	54.913000	0.207317	0.000000	-1.426950	-21.445000	4.549630	3.033550	-1.816770	289.850000	-57.565500	0.211350	0.000000	-0.980936	22.626200	-5.013640	4.443460
7.265000	-2.850330	266.047000	54.514700	0.207436	0.000000	-1.428010	-20.803200	4.407610	3.010000	-2.021580	286.244000	-57.900300	0.210966	0.000000	-0.980408	22.197400	-4.833890	4.276810
7.270000	-2.895370	262.115000	54.881100	0.207161	0.000000	-1.427490	-20.634300	4.357920	2.919350	-1.566260	281.671000	-57.938300	0.211801	0.000000	-0.980980	21.995900	-4.786010	4.474170
7.275000	-3.229080	258.061000	55.146900	0.207573	0.000000	-1.427920	-20.212000	4.243390	3.004300	-1.980170	278.723000	-58.067900	0.211590	0.000000	-0.980850	21.737500	-4.670440	4.375880
7.280000	-3.378050	254.962000	55.821400	0.207292	0.000000	-1.427120	-20.176600	4.173980	2.920570	-1.286910	274.031000	-58.378500	0.211064	0.000000	-0.980410	21.237700	-4.547000	4.159460
7.285000	-3.463510	250.238000	55.760400	0.207758	0.000000	-1.426520	-19.953500	4.042150	2.999760	-1.004360	270.288000	-57.815100	0.211316	0.000000	-0.979762	20.767200	-4.501220	4.177700
7.290000	-3.984960	244.017000	56.006000	0.207562	0.000000	-1.426360	-19.511700	4.028380	2.939950	-0.613804	264.057000	-58.340300	0.210658	0.000000	-0.980066	20.361700	-4.416270	3.937800
7.295000	-3.951630	243.595000	56.339200	0.207402	0.000000	-1.427190	-19.272400	3.941180	2.882970	-0.778231	262.012000	-58.570600	0.210194	0.000000	-0.979434	20.041300	-4.323720	3.784220
7.300000	-4.030650	241.782000	56.380900	0.207885	0.000000	-1.427270	-19.112900	3.888340	2.990910	-1.086910	257.863000	-58.904900	0.210630	0.000000	-0.978877	19.586700	-4.238900	3.871160
7.305000	-3.726400	241.578000	56.842900	0.208121	0.000000	-1.427470	-19.041700	3.812480	3.036410	-1.514190	253.588000	-59.000500	0.210168	0.000000	-0.979765	19.495500	-4.097470	3.698300
7.310000	-3.475600	237.849000	57.312400	0.207875	0.000000	-1.426450	-18.986300	3.762000	2.954950	-1.775690	250.711000	-59.224500	0.209805	0.000000	-0.979544	19.224200	-4.061230	3.586900
7.315000	-3.409160	236.934000	57.841800	0.207599	0.000000	-1.427380	-18.691500	3.759390	2.891050	-2.054610	246.882000	-59.702500	0.209894	0.000000	-0.980165	19.089700	-3.947820	3.578640
7.320000	-3.172280	233.438000	58.007000	0.207141	0.000000	-1.427180	-18.459100	3.699810	2.751480	-2.171070	244.677000	-60.813200	0.209004	0.000000	-0.978769	18.579900	-3.896990	3.348610
7.325000	-2.953470	231.904000	58.773400	0.206134	0.000000	-1.427370	-18.289000	3.656450	2.499300	-3.275210	243.101000	-61.329100	0.208805	0.000000	-0.978075	18.312100	-3.766330	3.289030
7.330000	-2.032240	230.499000	59.774700	0.205687	0.000000	-1.427470	-18.138400	3.686980	2.396620	-3.372830	239.607000	-61.898800	0.208554	0.000000	-0.978359	18.118700	-3.636790	3.191430
7.335000	-1.030130	230.145000	60.152500	0.206111	0.000000	-1.428450	-17.865400	3.609450	2.466660	-4.046770	236.501000	-62.749600	0.208505	0.000000	-0.977959	17.802800	-3.548010	3.174800
7.340000	-0.002657	228.750000	61.441800	0.205977	0.000000	-1.428410	-17.748700	3.647530	2.445580	-3.791170	233.679000	-62.126900	0.208116	0.000000	-0.976850	17.325500	-3.425300	3.015710
7.345000	0.233628	227.795000	62.860700	0.205947	0.000000	-1.428250	-17.706100	3.485040	2.414440	-3.780150	232.438000	-63.048700	0.208247	0.000000	-0.975710	16.968600	-3.393340	3.052890
7.350000	0.872502	226.121000	63.475300	0.205443	0.000000	-1.428150	-17.588500	3.472860	2.283460	-3.583830	229.750000	-62.772800	0.207090	0.000000	-0.975360	16.688300	-3.375860	2.743810
7.355000	1.041260	226.248000	64.149200	0.206360	0.000000	-1.427720	-17.694500	3.329050	2.475400	-3.641330	228.885000	-63.065600	0.207166	0.000000	-0.975029	16.550700	-3.321590	2.752260
7.360000	1.504040	224.146000	63.877100	0.204963	0.000000	-1.427130	-17.653700	3.335600	2.119560	-3.053520	224.949000	-63.600400	0.206009	0.000000	-0.974511	16.137700	-3.196870	2.425310
7.365000	2.235530	224.786000	64.501300	0.206194	0.000000	-1.426940	-17.738900	3.155160	2.361520	-3.351670	221.587000	-62.873600	0.206737	0.000000	-0.974584	15.920500	-3.199590	2.589000
7.370000	2.166400	222.490000	64.101500	0.205625	0.000000	-1.426870	-17.572700	3.096210	2.198000	-3.644430	218.818000	-62.849400	0.206009	0.000000	-0.974090	15.619100	-3.161000	2.405590
7.375000	2.090100	220.982000	63.342300	0.206604	0.000000	-1.428700	-17.052900	2.916120	2.368850	-3.906210	213.412000	-62.028600	0.206160	0.000000	-0.973510	15.113100	-2.912300	2.352290
7.380000	1.480730	218.447000	63.492400	0.206160	0.000000	-1.429740	-16.637700	2.830150	2.248980	-4.208000	208.748000	-62.114700	0.204797	0.000000	-0.974199	14.934200	-2.950610	2.057120
7.385000	1.217550	217.274000	62.870300	0.206973	0.000000	-1.428130	-16.902200	2.683800	2.390980	-3.950090	204.845000	-60.907000	0.204287	0.000000	-0.973496	14.506400	-2.863330	1.890040
7.390000	0.848800	214.850000	62.750400	0.206368	0.000000	-1.429680	-16.386100	2.558940	2.213290	-4.491580	202.278000	-60.754700	0.203446	0.000000	-0.973175	14.269300	-2.830990	1.704880
7.395000	0.614622	212.603000	62.414200	0.206095	0.000000	-1.429730	-16.207600	2.449530	2.112730	-5.161640	198.173000	-60.414200	0.203277	0.000000	-0.973144	13.985500	-2.696200	1.642000
7.400000	0.350267	209.561000	61.324600	0.206031	0.000000	-1.429530	-16.020300	2.299860	2.037350	-5.054690	196.040000	-59.265000	0.202532	0.000000	-0.971776	13.563100	-2.614940	1.437340
7.405000	0.112003	208.426000	61.283700	0.206095	0.000000	-1.430790	-15.674200	2.177640	2.017990	-5.700680	192.341000	-58.132100	0.202333	0.000000	-0.971905	13.343500	-2.516000	1.368840
7.410000	-0.431573	205.202000	60.723900	0.205320	0.000000	-1.430260	-15.546300	2.110850	1.821530	-6.262070	188.842000	-57.329900	0.200839	0.000000	-0.972322	13.190200	-2.514390	1.068180
7.415000	-0.635936	204.434000	59.911600	0.206098	0.000000	-1.429760	-15.592400	1.922180	1.931300	-6.333480	186.063000	-56.473700	0.200013	0.000000	-0.971082	12.766900	-2.483880	0.887364
